<svg width="15" height="15" viewBox="0 0 15 15" fill="none" xmlns="http://www.w3.org/2000/svg">
    <g clip-path="url(#clip0_1190_5388)">
        <path d="M7.3 9.2C8.3 9.2 9 8.5 9 7.5C9 6.5 8.3 5.8 7.3 5.8C6.3 5.8 5.6 6.5 5.6 7.5C5.6 8.5 6.3 9.2 7.3 9.2Z" 
            stroke="currentColor" 
            stroke-width="1.2" 
            stroke-linecap="round" 
            stroke-linejoin="round"/>
        <path d="M12.5 7.5C12.5 7.8 12.4 8.1 12.3 8.4L13.3 9.1C13.6 9.3 13.7 9.7 13.5 10L12.5 11.7C12.3 12 11.9 12.1 11.6 11.9L10.4 11.4C10 11.7 9.5 11.9 9 12.1L8.8 13.3C8.7 13.6 8.4 13.8 8.1 13.8H6C5.7 13.8 5.4 13.6 5.3 13.3L5.1 12.1C4.6 11.9 4.1 11.7 3.7 11.4L2.5 11.9C2.2 12.1 1.8 12 1.6 11.7L0.6 10C0.4 9.7 0.5 9.3 0.8 9.1L1.8 8.4C1.7 8.1 1.6 7.8 1.6 7.5C1.6 7.2 1.7 6.9 1.8 6.6L0.8 5.9C0.5 5.7 0.4 5.3 0.6 5L1.6 3.3C1.8 3 2.2 2.9 2.5 3.1L3.7 3.6C4.1 3.3 4.6 3.1 5.1 2.9L5.3 1.7C5.4 1.4 5.7 1.2 6 1.2H8.1C8.4 1.2 8.7 1.4 8.8 1.7L9 2.9C9.5 3.1 10 3.3 10.4 3.6L11.6 3.1C11.9 2.9 12.3 3 12.5 3.3L13.5 5C13.7 5.3 13.6 5.7 13.3 5.9L12.3 6.6C12.4 6.9 12.5 7.2 12.5 7.5Z" 
            stroke="currentColor" 
            stroke-width="1.2" 
            stroke-linecap="round" 
            stroke-linejoin="round"/>
    </g>
    <defs>
        <clipPath id="clip0_1190_5388">
            <rect width="15" height="15" fill="white"/>
        </clipPath>
    </defs>
</svg>
